<svg height="512" viewBox="0 0 48 59" width="512" xmlns="http://www.w3.org/2000/svg"><g id="Page-1" fill="none" fill-rule="evenodd"><g id="035---Network-Gaming" fill-rule="nonzero"><g fill="#3b97d3"><path id="Shape" d="m24 14.9c-.5522847 0-1-.4477153-1-1s.4477153-1 1-1c3.3525564.0086326 6.7010205-.2347195 10.0171-.728.019-.003.0381-.0054.0571-.0073 2.7251513-.3597675 5.3928092-1.0680622 7.9375-2.1075.5042912-.22544261 1.0958573.0006088 1.3213.5049.2254426.5042912-.0006088 1.0958574-.5049 1.3213-2.7231379 1.1179179-5.579267 1.8794179-8.4975 2.2656-.0176.0025-.0357.0049-.0537.0064-3.4022598.5042399-6.8374877.7531351-10.2769.7446z"/><path id="Shape" d="m34.6011 32c-.0679095.0003279-.1356706-.0063745-.2022-.02-.5409464-.111144-.8893908-.6397426-.7783-1.1807.5153638-2.5675256.7697912-5.1805828.7594-7.7993.0205533-3.2322544-.374962-6.4537148-1.1768-9.585-1.7213-6.675-5.1998-11.1508-8.8632-11.4077-.11-.0073-.2209-.0058-.34-.0073-.5522847 0-1-.44771525-1-1s.4477153-1 1-1c.1655 0 .3306.001.4849.0127 4.601.3227 8.685 5.2651 10.6533 12.8979.8452148 3.2959034 1.2625788 6.6869104 1.2418 10.0894.0105578 2.7537154-.2574733 5.5014362-.8 8.2012-.0954668.4647845-.5044124.7984915-.9789.7988z"/><path id="Shape" d="m24 32c-.5522847 0-1-.4477153-1-1v-30c0-.55228475.4477153-1 1-1s1 .44771525 1 1v30c0 .5522847-.4477153 1-1 1z"/><path id="Shape" d="m46 24h-22c-.5522847 0-1-.4477153-1-1s.4477153-1 1-1h22c.5522847 0 1 .4477153 1 1s-.4477153 1-1 1z"/><path id="Shape" d="m24 14.9c-3.440854.0084155-6.8775147-.2406465-10.2812-.7451-.0171-.0015-.0337-.0034-.0494-.0059-2.918086-.3861079-5.7740593-1.1476111-8.497-2.2656-.50115864-.2270181-.7247989-.8162306-.50048755-1.3186066s.81230884-.72919144 1.31588755-.5075934c2.54656718 1.0396031 5.2159922 1.7481876 7.9429 2.1084.018.0015.0356.0039.0522.0064 3.3160795.4932805 6.6645436.7366326 10.0171.728.5522847 0 1 .4477153 1 1s-.4477153 1-1 1z"/><path id="Shape" d="m13.4 31.9849c-.4987213.0021806-.9221412-.3649087-.9907-.8589-.5342407-2.6754472-.7986653-5.3977509-.7893-8.126-.0207334-3.4043202.3971041-6.7971331 1.2432-10.0947 1.9668-7.6275 6.0509-12.5699 10.6568-12.8931.1494-.0112.3145-.0122.48-.0122.5522847 0 1 .44771525 1 1-.0212818.57044507-.4987092 1.01693105-1.0693 1-.0913 0-.1812.0005-.2661.0068-3.668.2574-7.1465 4.7334-8.8663 11.4029-.8027046 3.1329535-1.1987263 6.3562135-1.1783 9.5903-.0097554 2.611899.2446387 5.2180901.7593 7.7788.0135276.0662066.0202293.133626.02.2012.0003372.5529469-.4463599 1.0021472-.9993 1.0049z"/><path id="Shape" d="m24 32c-.5522847 0-1-.4477153-1-1v-30c0-.55228475.4477153-1 1-1s1 .44771525 1 1v30c0 .5522847-.4477153 1-1 1z"/><path id="Shape" d="m24 24h-22c-.55228475 0-1-.4477153-1-1s.44771525-1 1-1h22c.5522847 0 1 .4477153 1 1s-.4477153 1-1 1z"/></g><path id="Shape" d="m43.7686 33.65c-.3452791-.0002798-.6659872-.17866-.8483444-.4718554s-.2005619-.659722-.0481556-.9695446c3.2425905-6.6425847 2.7533544-14.500899-1.2881-20.69-3.797801-5.82540447-10.2379167-9.38754984-17.1909-9.5086-.1646-.0115-.2793-.0115-.3931-.01-.5522847 0-1-.44771525-1-1s.4477153-1 1-1c.1655 0 .3306.001.4849.0127 12.5105011.2576287 22.5171536 10.4741467 22.5151 22.9873.0111049 3.4986881-.7873814 6.9525096-2.333 10.0913-.1683673.3423664-.5168739.5590968-.8984.5587z" fill="#2980ba"/><path id="Shape" d="m4.231 33.65c-.38165198.0003601-.73022974-.2165457-.8985-.5591-3.55409351-7.2776796-3.01790345-15.8883617 1.4116-22.6689 4.16010944-6.37953965 11.2137386-10.28009499 18.8287-10.412.0966-.009.2617-.01.4272-.01.5522847 0 1 .44771525 1 1-.0212818.57044507-.4987092 1.01693105-1.0693 1-.0913 0-.1812.0005-.2661.0068-11.4656275.17965115-20.6658435 9.5261652-20.6646 20.9932-.01056054 3.1926546.71755217 6.3444784 2.1274 9.209.15221014.309772.13391789.6761383-.04839147.9692081-.18230935.2930698-.50286151.4714099-.84800853.4717919z" fill="#2980ba"/><path id="Shape" d="m28 48h-8.01l-8.0153 1.3317c-.8957 3.0916-3.2427 9.6683-7.0493 9.6683-3.4666 0-4.6277-3.3566-4.86-6.1752-.14561338-2.7347396.08034594-5.4765947.6717-8.1506.4976-2.5616.9455-5.1634 1.6753-7.6769.2073-.7146.44-1.4133.7049-2.1119.7381-1.9031 1.8328-3.8946 3.9476-4.5933 1.9987-.6584 4.4815-.055 6.3724.7079h21.5627c1.8909-.7629 3.9363-1.3663 5.935-.7079 2.1148.6987 3.2095 2.69 3.9476 4.5933.2654.6986.4976 1.3973.7049 2.1119.73 2.5135 1.1777 5.1153 1.6753 7.6769.5913541 2.6740053.8173134 5.4158604.6717 8.1506-.2322 2.8186-1.3933 6.1752-4.8599 6.1752-3.8066 0-6.1536-6.5767-7.0493-9.6683z" fill="#393f4a"/><path id="Shape" d="m15.9951 53c-2.0227107.00178-3.8472421-1.2153017-4.6225336-3.0835321-.7752916-1.8682303-.3485995-4.0195408 1.0810437-5.4504432 1.4296433-1.4309025 3.5805772-1.8594883 5.4494894-1.0858418s3.0875997 2.5971056 3.0876005 4.6198171c-.0018164 2.7589536-2.236649 4.9957546-4.9956 5z" fill="#2c2f38"/><path id="Shape" d="m31.9951 53c-2.0227107.00178-3.8472421-1.2153017-4.6225336-3.0835321-.7752916-1.8682303-.3485995-4.0195408 1.0810437-5.4504432 1.4296433-1.4309025 3.5805772-1.8594883 5.4494894-1.0858418s3.0875997 2.5971056 3.0876005 4.6198171c-.0018164 2.7589536-2.236649 4.9957546-4.9956 5z" fill="#2c2f38"/><path id="Shape" d="m21 40h-2c-.5522847 0-1-.4477153-1-1s.4477153-1 1-1h2c.5522847 0 1 .4477153 1 1s-.4477153 1-1 1z" fill="#a5a5a4"/><path id="Shape" d="m29 40h-2c-.5522847 0-1-.4477153-1-1s.4477153-1 1-1h2c.5522847 0 1 .4477153 1 1s-.4477153 1-1 1z" fill="#a5a5a4"/><circle id="Oval" cx="39" cy="42" fill="#3b97d3" r="1"/><circle id="Oval" cx="39" cy="36" fill="#24ae5f" r="1"/><circle id="Oval" cx="42" cy="39" fill="#f18d46" r="1"/><circle id="Oval" cx="36" cy="39" fill="#d75e72" r="1"/><path id="Shape" d="m9 43c-.55228475 0-1-.4477153-1-1v-1c0-.5522847.44771525-1 1-1s1 .4477153 1 1v1c0 .5522847-.44771525 1-1 1z" fill="#a5a5a4"/><path id="Shape" d="m12 40h-1c-.5522847 0-1-.4477153-1-1s.4477153-1 1-1h1c.5522847 0 1 .4477153 1 1s-.4477153 1-1 1z" fill="#a5a5a4"/><path id="Shape" d="m7 40h-1c-.55228475 0-1-.4477153-1-1s.44771525-1 1-1h1c.55228475 0 1 .4477153 1 1s-.44771525 1-1 1z" fill="#a5a5a4"/><path id="Shape" d="m9 38c-.55228475 0-1-.4477153-1-1v-1c0-.5522847.44771525-1 1-1s1 .4477153 1 1v1c0 .5522847-.44771525 1-1 1z" fill="#a5a5a4"/><circle id="Oval" cx="15.995" cy="48" fill="#a5a5a4" r="2.997"/><circle id="Oval" cx="31.995" cy="48" fill="#a5a5a4" r="2.997"/></g></g></svg>